<?xml version="1.0" standalone="yes"?>

<svg version="1.1" viewBox="0.0 0.0 960.0 720.0" fill="none" stroke="none" stroke-linecap="square" stroke-miterlimit="10" xmlns="http://www.w3.org/2000/svg" xmlns:xlink="http://www.w3.org/1999/xlink"><clipPath id="p.0"><path d="m0 0l960.0 0l0 720.0l-960.0 0l0 -720.0z" clip-rule="nonzero"></path></clipPath><g clip-path="url(#p.0)"><path fill="#000000" fill-opacity="0.0" d="m0 0l960.0 0l0 720.0l-960.0 0z" fill-rule="nonzero"></path><path fill="#34495e" d="m338.11023 408.39896l0 0c0 -78.050446 63.526215 -141.32285 141.88977 -141.32285l0 0c37.63153 0 73.72174 14.889343 100.33124 41.392517c26.609497 26.503174 41.558533 62.44919 41.558533 99.93033l0 0c0 78.050446 -63.526245 141.32285 -141.88977 141.32285l0 0c-78.363556 0 -141.88977 -63.2724 -141.88977 -141.32285z" fill-rule="nonzero"></path><path fill="#34495e" d="m448.0 186.95538l64.0 0l0 148.0l-64.0 0z" fill-rule="nonzero"></path><path fill="#cc4125" d="m358.18896 408.39896l0 0c0 -69.30087 54.53665 -125.480316 121.811035 -125.480316l0 0c32.306274 0 63.28943 13.220215 86.13342 36.75232c22.843994 23.532135 35.677612 55.448547 35.677612 88.728l0 0c0 69.30087 -54.536682 125.480316 -121.811035 125.480316l0 0c-67.27438 0 -121.811035 -56.179443 -121.811035 -125.480316z" fill-rule="nonzero"></path><path stroke="#cc4125" stroke-width="1.0" stroke-linejoin="round" stroke-linecap="butt" d="m358.18896 408.39896l0 0c0 -69.30087 54.53665 -125.480316 121.811035 -125.480316l0 0c32.306274 0 63.28943 13.220215 86.13342 36.75232c22.843994 23.532135 35.677612 55.448547 35.677612 88.728l0 0c0 69.30087 -54.536682 125.480316 -121.811035 125.480316l0 0c-67.27438 0 -121.811035 -56.179443 -121.811035 -125.480316z" fill-rule="nonzero"></path><path fill="#34495e" d="m423.98438 175.82677l112.03125 0c1.5245361 0 2.9865723 0.6056061 4.064575 1.6835938c1.0780029 1.0779877 1.6835938 2.5400543 1.6835938 4.06456l0 28.740036c0 5.79834E-4 -4.8828125E-4 0.0010375977 -0.0010375977 0.0010375977l-123.52655 -0.0010375977l0 0c-5.493164E-4 0 -0.0010070801 -4.5776367E-4 -0.0010070801 -0.0010223389l0.0010070801 -28.739014l0 0c0 -3.1746216 2.5735474 -5.7481537 5.748169 -5.7481537z" fill-rule="nonzero"></path></g></svg>

